<svg xmlns="http://www.w3.org/2000/svg" xmlns:xlink="http://www.w3.org/1999/xlink" width="407" zoomAndPan="magnify" viewBox="0 0 305.25 149.999998" height="200" preserveAspectRatio="xMidYMid meet" version="1.0"><defs><g/><clipPath id="15d5802668"><path d="M 1 0.183594 L 115 0.183594 L 115 103 L 1 103 Z M 1 0.183594 " clip-rule="nonzero"/></clipPath><clipPath id="68f1502e6b"><path d="M 68.902344 58.804688 L 99.652344 58.804688 L 99.652344 124.691406 L 68.902344 124.691406 Z M 68.902344 58.804688 " clip-rule="nonzero"/></clipPath><clipPath id="621b1e9918"><path d="M 36.804688 58 L 68 58 L 68 124.703125 L 36.804688 124.703125 Z M 36.804688 58 " clip-rule="nonzero"/></clipPath><clipPath id="835b424036"><path d="M 62 46.144531 L 74 46.144531 L 74 58 L 62 58 Z M 62 46.144531 " clip-rule="nonzero"/></clipPath></defs><g clip-path="url(#15d5802668)"><path fill="#bc002d" d="M 13.078125 18.683594 C 17.183594 21.792969 22.769531 22.8125 27.863281 24.03125 L 28.765625 35.253906 C 31.28125 34.90625 32.3125 34.394531 33.851562 34.515625 C 24.570312 37.925781 13.515625 50.566406 8.835938 59.367188 C 1.414062 73.335938 0.253906 85.238281 2.359375 102.433594 C 2.554688 102.066406 2.753906 101.070312 2.816406 101.265625 L 4.421875 92.285156 C 6.386719 71.605469 18.242188 53.265625 36.261719 43.132812 C 67.324219 25.667969 86.019531 36.261719 110.683594 49.019531 C 105.863281 41.992188 101.386719 37.421875 93.789062 34.476562 C 95.96875 34.371094 102.121094 38.164062 98.265625 28.40625 C 96.722656 24.5 96.777344 25.730469 89.441406 22.285156 C 93.875 22.671875 106.554688 25.46875 114.3125 18.816406 C 104.339844 16.003906 70.953125 0.960938 64.335938 0.542969 C 58.644531 0.183594 22.511719 16.257812 13.078125 18.683594 Z M 13.078125 18.683594 " fill-opacity="1" fill-rule="evenodd"/></g><path fill="#bc002d" d="M 59.785156 147.867188 C 47.539062 142.339844 25.636719 139.417969 16.339844 109.847656 C 7.34375 81.246094 23.117188 64.570312 36.78125 50.425781 C 17.367188 56.671875 2.949219 83.394531 8.46875 108.285156 C 13.195312 129.601562 33.742188 149.265625 59.785156 147.867188 Z M 59.785156 147.867188 " fill-opacity="1" fill-rule="evenodd"/><path fill="#bc002d" d="M 112.257812 45.609375 C 115.046875 43.816406 115.410156 48.285156 114.484375 40.578125 C 114.09375 37.304688 113.09375 27.652344 112.835938 23.742188 C 112.113281 25.769531 112.144531 35.03125 111.636719 37.839844 C 110.339844 44.996094 110.792969 42.890625 112.257812 45.609375 Z M 112.257812 45.609375 " fill-opacity="1" fill-rule="evenodd"/><path fill="#bc002d" d="M 113.582031 119.566406 C 102.53125 127.136719 88.671875 144.351562 58.796875 136.683594 C 29.90625 129.269531 23.984375 106.949219 19.113281 87.769531 C 14.308594 107.695312 29.4375 134.167969 53.382812 142.597656 C 73.886719 149.816406 101.222656 142.609375 113.582031 119.566406 Z M 113.582031 119.566406 " fill-opacity="1" fill-rule="evenodd"/><path fill="#072556" d="M 86.921875 69.308594 C 89.023438 71.070312 89.292969 74.203125 87.53125 76.300781 C 85.765625 78.398438 82.636719 78.671875 80.539062 76.910156 C 78.4375 75.144531 78.167969 72.015625 79.929688 69.914062 C 81.695312 67.816406 84.824219 67.546875 86.921875 69.308594 " fill-opacity="1" fill-rule="nonzero"/><path fill="#072556" d="M 92.699219 74.359375 C 92.757812 74.488281 92.746094 74.648438 92.648438 74.761719 C 92.546875 74.878906 92.394531 74.921875 92.257812 74.882812 L 92.222656 74.925781 L 91.125 77.28125 L 89.851562 76.210938 L 91.984375 74.722656 L 92.019531 74.683594 C 91.957031 74.554688 91.972656 74.394531 92.070312 74.277344 C 92.167969 74.160156 92.320312 74.121094 92.460938 74.160156 L 94.253906 72.023438 L 92.964844 69.714844 L 93.585938 71.796875 L 92.109375 71.304688 L 89.792969 74.058594 C 90.113281 72.003906 89.382812 69.839844 87.679688 68.410156 C 86.003906 67 83.792969 66.644531 81.851562 67.269531 L 84.109375 64.582031 L 82.296875 61.238281 L 91.144531 64.328125 L 95.710938 72.507812 L 94.574219 72.128906 L 92.699219 74.359375 " fill-opacity="1" fill-rule="nonzero"/><g clip-path="url(#68f1502e6b)"><path fill="#072556" d="M 80.304688 115.203125 C 80.304688 115.203125 72.40625 113.03125 72.347656 98.671875 C 72.320312 92.546875 73.417969 87.652344 71.503906 78.777344 C 69.59375 69.902344 68.3125 64.15625 69.285156 58.882812 C 69.285156 58.882812 71.042969 70.625 80.304688 76.175781 C 91.941406 83.148438 96.988281 90.714844 96.679688 99.746094 C 96.679688 99.746094 93.042969 90.742188 84.683594 88.390625 C 84.683594 88.390625 84.03125 113.671875 99.742188 124.691406 C 99.742188 124.691406 86.339844 122.351562 77.703125 100.816406 C 77.703125 100.816406 76.480469 110.917969 80.304688 115.203125 " fill-opacity="1" fill-rule="nonzero"/></g><path fill="#bc002d" d="M 49.625 69.308594 C 47.527344 71.070312 47.253906 74.203125 49.019531 76.300781 C 50.78125 78.398438 53.914062 78.671875 56.011719 76.910156 C 58.109375 75.144531 58.382812 72.015625 56.617188 69.914062 C 54.855469 67.816406 51.722656 67.546875 49.625 69.308594 " fill-opacity="1" fill-rule="nonzero"/><path fill="#bc002d" d="M 43.851562 74.359375 C 43.789062 74.488281 43.804688 74.648438 43.902344 74.761719 C 44 74.878906 44.152344 74.921875 44.292969 74.882812 L 44.324219 74.925781 L 45.421875 77.28125 L 46.695312 76.210938 L 44.566406 74.722656 L 44.53125 74.683594 C 44.589844 74.554688 44.578125 74.394531 44.480469 74.277344 C 44.378906 74.160156 44.226562 74.121094 44.089844 74.160156 L 42.292969 72.023438 L 43.585938 69.714844 L 42.964844 71.796875 L 44.441406 71.304688 L 46.753906 74.058594 C 46.4375 72.003906 47.167969 69.839844 48.867188 68.410156 C 50.542969 67 52.753906 66.644531 54.699219 67.269531 L 52.441406 64.582031 L 54.25 61.238281 L 45.402344 64.328125 L 40.835938 72.507812 L 41.976562 72.128906 L 43.851562 74.359375 " fill-opacity="1" fill-rule="nonzero"/><g clip-path="url(#621b1e9918)"><path fill="#bc002d" d="M 56.242188 115.203125 C 56.242188 115.203125 64.140625 113.03125 64.203125 98.671875 C 64.226562 92.546875 63.132812 87.652344 65.042969 78.777344 C 66.957031 69.902344 68.238281 64.15625 67.261719 58.882812 C 67.261719 58.882812 65.503906 70.625 56.242188 76.175781 C 44.609375 83.148438 39.5625 90.714844 39.867188 99.746094 C 39.867188 99.746094 43.503906 90.742188 51.863281 88.390625 C 51.863281 88.390625 52.515625 113.671875 36.808594 124.691406 C 36.808594 124.691406 50.207031 122.351562 58.84375 100.816406 C 58.84375 100.816406 60.070312 110.917969 56.242188 115.203125 " fill-opacity="1" fill-rule="nonzero"/></g><g clip-path="url(#835b424036)"><path fill="#bc002d" d="M 68.0625 56.53125 L 68.242188 57.703125 L 68.398438 56.53125 C 68.710938 54.226562 70.503906 52.402344 72.800781 52.054688 L 73.972656 51.875 L 72.796875 51.714844 C 70.492188 51.40625 68.671875 49.613281 68.320312 47.316406 L 68.140625 46.144531 L 67.984375 47.320312 C 67.671875 49.621094 65.878906 51.445312 63.582031 51.796875 L 62.410156 51.972656 L 63.585938 52.132812 C 65.890625 52.445312 67.710938 54.234375 68.0625 56.53125 " fill-opacity="1" fill-rule="nonzero"/></g><g fill="#072556" fill-opacity="1"><g transform="translate(109.955101, 101.176868)"><g><path d="M 16.078125 0 L 10.9375 0 L 4.921875 -6.9375 L 4.921875 0 L 1.1875 0 L 1.1875 -16.359375 L 4.921875 -16.359375 L 4.921875 -9.671875 L 10.53125 -16.359375 L 15.046875 -16.359375 L 8.46875 -8.609375 Z M 16.078125 0 "/></g></g></g><g fill="#072556" fill-opacity="1"><g transform="translate(127.545154, 101.176868)"><g><path d="M 4.921875 -10.15625 L 4.921875 0 L 1.1875 0 L 1.1875 -16.359375 L 4.921875 -16.359375 L 11.421875 -6.203125 L 11.453125 -6.203125 L 11.453125 -16.359375 L 15.1875 -16.359375 L 15.1875 0 L 11.453125 0 L 4.953125 -10.15625 Z M 4.921875 -10.15625 "/></g></g></g><g fill="#072556" fill-opacity="1"><g transform="translate(145.908601, 101.176868)"><g><path d="M 0.453125 -8.1875 C 0.453125 -10.550781 1.257812 -12.550781 2.875 -14.1875 C 4.488281 -15.832031 6.429688 -16.65625 8.703125 -16.65625 C 10.992188 -16.65625 12.9375 -15.835938 14.53125 -14.203125 C 16.132812 -12.578125 16.9375 -10.570312 16.9375 -8.1875 C 16.9375 -5.789062 16.148438 -3.773438 14.578125 -2.140625 C 13.003906 -0.515625 11.046875 0.296875 8.703125 0.296875 C 6.304688 0.296875 4.332031 -0.507812 2.78125 -2.125 C 1.226562 -3.75 0.453125 -5.769531 0.453125 -8.1875 Z M 4.484375 -8.1875 C 4.484375 -7.332031 4.613281 -6.550781 4.875 -5.84375 C 5.144531 -5.132812 5.609375 -4.535156 6.265625 -4.046875 C 6.921875 -3.554688 7.734375 -3.3125 8.703125 -3.3125 C 10.085938 -3.3125 11.132812 -3.785156 11.84375 -4.734375 C 12.550781 -5.691406 12.90625 -6.84375 12.90625 -8.1875 C 12.90625 -9.519531 12.546875 -10.664062 11.828125 -11.625 C 11.109375 -12.582031 10.066406 -13.0625 8.703125 -13.0625 C 7.359375 -13.0625 6.316406 -12.582031 5.578125 -11.625 C 4.847656 -10.664062 4.484375 -9.519531 4.484375 -8.1875 Z M 4.484375 -8.1875 "/></g></g></g><g fill="#072556" fill-opacity="1"><g transform="translate(165.283406, 101.176868)"><g><path d="M 13.734375 0 L 11.125 -9.1875 L 8.5 0 L 4.359375 0 L -0.296875 -16.359375 L 3.84375 -16.359375 L 6.640625 -5.140625 L 6.734375 -5.140625 L 9.71875 -16.359375 L 12.53125 -16.359375 L 15.5 -5.140625 L 15.609375 -5.140625 L 18.40625 -16.359375 L 22.53125 -16.359375 L 17.859375 0 Z M 13.734375 0 "/></g></g></g><g fill="#072556" fill-opacity="1"><g transform="translate(189.496854, 101.176868)"><g><path d="M 4.921875 -16.359375 L 4.921875 -3.265625 L 10.546875 -3.265625 L 10.546875 0 L 1.1875 0 L 1.1875 -16.359375 Z M 4.921875 -16.359375 "/></g></g></g><g fill="#072556" fill-opacity="1"><g transform="translate(202.684544, 101.176868)"><g><path d="M 10.546875 -16.359375 L 10.546875 -13.09375 L 4.921875 -13.09375 L 4.921875 -9.828125 L 10.3125 -9.828125 L 10.3125 -6.5625 L 4.921875 -6.5625 L 4.921875 -3.265625 L 10.546875 -3.265625 L 10.546875 0 L 1.1875 0 L 1.1875 -16.359375 Z M 10.546875 -16.359375 "/></g></g></g><g fill="#072556" fill-opacity="1"><g transform="translate(216.169688, 101.176868)"><g><path d="M 1.1875 -16.359375 L 5.921875 -16.359375 C 8.203125 -16.359375 10.144531 -15.582031 11.75 -14.03125 C 13.363281 -12.476562 14.171875 -10.53125 14.171875 -8.1875 C 14.171875 -5.832031 13.367188 -3.878906 11.765625 -2.328125 C 10.160156 -0.773438 8.210938 0 5.921875 0 L 1.1875 0 Z M 4.921875 -3.328125 L 5.5 -3.328125 C 6.851562 -3.328125 7.960938 -3.785156 8.828125 -4.703125 C 9.691406 -5.628906 10.132812 -6.785156 10.15625 -8.171875 C 10.15625 -9.554688 9.71875 -10.710938 8.84375 -11.640625 C 7.976562 -12.566406 6.863281 -13.03125 5.5 -13.03125 L 4.921875 -13.03125 Z M 4.921875 -3.328125 "/></g></g></g><g fill="#072556" fill-opacity="1"><g transform="translate(232.78805, 101.176868)"><g><path d="M 15.984375 -9.15625 L 15.984375 -5.609375 C 15.554688 -3.671875 14.628906 -2.203125 13.203125 -1.203125 C 11.773438 -0.203125 10.179688 0.296875 8.421875 0.296875 C 6.210938 0.296875 4.332031 -0.523438 2.78125 -2.171875 C 1.226562 -3.828125 0.453125 -5.828125 0.453125 -8.171875 C 0.453125 -10.546875 1.210938 -12.550781 2.734375 -14.1875 C 4.253906 -15.832031 6.148438 -16.65625 8.421875 -16.65625 C 11.078125 -16.65625 13.179688 -15.722656 14.734375 -13.859375 L 12.296875 -11.1875 C 11.421875 -12.582031 10.203125 -13.28125 8.640625 -13.28125 C 7.492188 -13.28125 6.515625 -12.78125 5.703125 -11.78125 C 4.890625 -10.789062 4.484375 -9.585938 4.484375 -8.171875 C 4.484375 -6.785156 4.890625 -5.597656 5.703125 -4.609375 C 6.515625 -3.628906 7.492188 -3.140625 8.640625 -3.140625 C 9.597656 -3.140625 10.425781 -3.425781 11.125 -4 C 11.832031 -4.570312 12.1875 -5.332031 12.1875 -6.28125 L 8.421875 -6.28125 L 8.421875 -9.15625 Z M 15.984375 -9.15625 "/></g></g></g><g fill="#072556" fill-opacity="1"><g transform="translate(251.210995, 101.176868)"><g><path d="M 10.546875 -16.359375 L 10.546875 -13.09375 L 4.921875 -13.09375 L 4.921875 -9.828125 L 10.3125 -9.828125 L 10.3125 -6.5625 L 4.921875 -6.5625 L 4.921875 -3.265625 L 10.546875 -3.265625 L 10.546875 0 L 1.1875 0 L 1.1875 -16.359375 Z M 10.546875 -16.359375 "/></g></g></g><g fill="#bc002d" fill-opacity="1"><g transform="translate(109.955101, 74.554261)"><g><path d="M 4.75 -2.046875 C 4.75 -2.347656 4.640625 -2.582031 4.421875 -2.75 C 4.210938 -2.914062 3.828125 -3.085938 3.265625 -3.265625 C 2.703125 -3.441406 2.257812 -3.617188 1.9375 -3.796875 C 1.050781 -4.273438 0.609375 -4.921875 0.609375 -5.734375 C 0.609375 -6.148438 0.726562 -6.523438 0.96875 -6.859375 C 1.207031 -7.191406 1.546875 -7.453125 1.984375 -7.640625 C 2.429688 -7.828125 2.929688 -7.921875 3.484375 -7.921875 C 4.046875 -7.921875 4.546875 -7.816406 4.984375 -7.609375 C 5.421875 -7.410156 5.757812 -7.125 6 -6.75 C 6.238281 -6.382812 6.359375 -5.96875 6.359375 -5.5 L 4.75 -5.5 C 4.75 -5.863281 4.632812 -6.144531 4.40625 -6.34375 C 4.1875 -6.539062 3.875 -6.640625 3.46875 -6.640625 C 3.070312 -6.640625 2.765625 -6.554688 2.546875 -6.390625 C 2.328125 -6.222656 2.21875 -6.003906 2.21875 -5.734375 C 2.21875 -5.472656 2.34375 -5.253906 2.59375 -5.078125 C 2.851562 -4.910156 3.234375 -4.753906 3.734375 -4.609375 C 4.648438 -4.328125 5.316406 -3.984375 5.734375 -3.578125 C 6.148438 -3.171875 6.359375 -2.664062 6.359375 -2.0625 C 6.359375 -1.382812 6.101562 -0.851562 5.59375 -0.46875 C 5.082031 -0.0820312 4.394531 0.109375 3.53125 0.109375 C 2.925781 0.109375 2.375 0 1.875 -0.21875 C 1.382812 -0.4375 1.007812 -0.738281 0.75 -1.125 C 0.5 -1.507812 0.375 -1.953125 0.375 -2.453125 L 1.984375 -2.453125 C 1.984375 -1.585938 2.5 -1.15625 3.53125 -1.15625 C 3.914062 -1.15625 4.210938 -1.234375 4.421875 -1.390625 C 4.640625 -1.546875 4.75 -1.765625 4.75 -2.046875 Z M 4.75 -2.046875 "/></g></g></g><g fill="#bc002d" fill-opacity="1"><g transform="translate(117.796556, 74.554261)"><g><path d="M 2.3125 -2.75 L 2.3125 0 L 0.703125 0 L 0.703125 -7.8125 L 3.75 -7.8125 C 4.332031 -7.8125 4.84375 -7.703125 5.28125 -7.484375 C 5.726562 -7.273438 6.070312 -6.972656 6.3125 -6.578125 C 6.550781 -6.179688 6.671875 -5.726562 6.671875 -5.21875 C 6.671875 -4.457031 6.410156 -3.851562 5.890625 -3.40625 C 5.367188 -2.96875 4.644531 -2.75 3.71875 -2.75 Z M 2.3125 -4.0625 L 3.75 -4.0625 C 4.164062 -4.0625 4.484375 -4.160156 4.703125 -4.359375 C 4.929688 -4.554688 5.046875 -4.84375 5.046875 -5.21875 C 5.046875 -5.59375 4.929688 -5.898438 4.703125 -6.140625 C 4.484375 -6.378906 4.175781 -6.5 3.78125 -6.5 L 2.3125 -6.5 Z M 2.3125 -4.0625 "/></g></g></g><g fill="#bc002d" fill-opacity="1"><g transform="translate(125.970068, 74.554261)"><g><path d="M 5.109375 -1.609375 L 2.28125 -1.609375 L 1.75 0 L 0.03125 0 L 2.9375 -7.8125 L 4.4375 -7.8125 L 7.359375 0 L 5.640625 0 Z M 2.71875 -2.90625 L 4.671875 -2.90625 L 3.6875 -5.828125 Z M 2.71875 -2.90625 "/></g></g></g><g fill="#bc002d" fill-opacity="1"><g transform="translate(134.448854, 74.554261)"><g><path d="M 6.828125 -2.59375 C 6.765625 -1.757812 6.453125 -1.097656 5.890625 -0.609375 C 5.335938 -0.128906 4.601562 0.109375 3.6875 0.109375 C 2.6875 0.109375 1.898438 -0.226562 1.328125 -0.90625 C 0.753906 -1.582031 0.46875 -2.503906 0.46875 -3.671875 L 0.46875 -4.15625 C 0.46875 -4.90625 0.597656 -5.566406 0.859375 -6.140625 C 1.117188 -6.710938 1.492188 -7.148438 1.984375 -7.453125 C 2.484375 -7.765625 3.054688 -7.921875 3.703125 -7.921875 C 4.609375 -7.921875 5.332031 -7.675781 5.875 -7.1875 C 6.425781 -6.707031 6.75 -6.03125 6.84375 -5.15625 L 5.234375 -5.15625 C 5.191406 -5.664062 5.050781 -6.03125 4.8125 -6.25 C 4.570312 -6.476562 4.203125 -6.59375 3.703125 -6.59375 C 3.171875 -6.59375 2.769531 -6.398438 2.5 -6.015625 C 2.238281 -5.628906 2.101562 -5.035156 2.09375 -4.234375 L 2.09375 -3.640625 C 2.09375 -2.796875 2.21875 -2.175781 2.46875 -1.78125 C 2.726562 -1.394531 3.132812 -1.203125 3.6875 -1.203125 C 4.1875 -1.203125 4.554688 -1.316406 4.796875 -1.546875 C 5.046875 -1.773438 5.1875 -2.125 5.21875 -2.59375 Z M 6.828125 -2.59375 "/></g></g></g><g fill="#bc002d" fill-opacity="1"><g transform="translate(142.724118, 74.554261)"><g><path d="M 5.390625 -3.390625 L 2.3125 -3.390625 L 2.3125 -1.296875 L 5.9375 -1.296875 L 5.9375 0 L 0.703125 0 L 0.703125 -7.8125 L 5.921875 -7.8125 L 5.921875 -6.5 L 2.3125 -6.5 L 2.3125 -4.640625 L 5.390625 -4.640625 Z M 5.390625 -3.390625 "/></g></g></g><g fill="#bc002d" fill-opacity="1"><g transform="translate(149.992498, 74.554261)"><g/></g></g><g fill="#bc002d" fill-opacity="1"><g transform="translate(153.822474, 74.554261)"><g><path d="M 7.109375 -3.734375 C 7.109375 -2.960938 6.972656 -2.285156 6.703125 -1.703125 C 6.429688 -1.128906 6.039062 -0.679688 5.53125 -0.359375 C 5.03125 -0.046875 4.453125 0.109375 3.796875 0.109375 C 3.148438 0.109375 2.570312 -0.046875 2.0625 -0.359375 C 1.550781 -0.671875 1.15625 -1.113281 0.875 -1.6875 C 0.601562 -2.269531 0.46875 -2.9375 0.46875 -3.6875 L 0.46875 -4.078125 C 0.46875 -4.835938 0.601562 -5.507812 0.875 -6.09375 C 1.15625 -6.6875 1.546875 -7.140625 2.046875 -7.453125 C 2.554688 -7.765625 3.132812 -7.921875 3.78125 -7.921875 C 4.4375 -7.921875 5.015625 -7.765625 5.515625 -7.453125 C 6.023438 -7.140625 6.414062 -6.6875 6.6875 -6.09375 C 6.96875 -5.507812 7.109375 -4.835938 7.109375 -4.078125 Z M 5.484375 -4.078125 C 5.484375 -4.898438 5.335938 -5.523438 5.046875 -5.953125 C 4.753906 -6.378906 4.332031 -6.59375 3.78125 -6.59375 C 3.25 -6.59375 2.832031 -6.378906 2.53125 -5.953125 C 2.238281 -5.535156 2.09375 -4.921875 2.09375 -4.109375 L 2.09375 -3.734375 C 2.09375 -2.929688 2.238281 -2.3125 2.53125 -1.875 C 2.820312 -1.4375 3.242188 -1.21875 3.796875 -1.21875 C 4.335938 -1.21875 4.75 -1.425781 5.03125 -1.84375 C 5.320312 -2.269531 5.472656 -2.890625 5.484375 -3.703125 Z M 5.484375 -4.078125 "/></g></g></g><g fill="#bc002d" fill-opacity="1"><g transform="translate(162.494066, 74.554261)"><g><path d="M 5.390625 -3.1875 L 2.3125 -3.1875 L 2.3125 0 L 0.703125 0 L 0.703125 -7.8125 L 5.78125 -7.8125 L 5.78125 -6.5 L 2.3125 -6.5 L 2.3125 -4.484375 L 5.390625 -4.484375 Z M 5.390625 -3.1875 "/></g></g></g></svg>