<svg xmlns="http://www.w3.org/2000/svg" xmlns:xlink="http://www.w3.org/1999/xlink" width="500" zoomAndPan="magnify" viewBox="0 0 375 374.999991" height="500" preserveAspectRatio="xMidYMid meet" version="1.0"><defs><g/><clipPath id="1cf8c45870"><path d="M 53 112.5 L 167 112.5 L 167 215 L 53 215 Z M 53 112.5 " clip-rule="nonzero"/></clipPath><clipPath id="63dacb606f"><path d="M 120.820312 171.265625 L 151.644531 171.265625 L 151.644531 237.3125 L 120.820312 237.3125 Z M 120.820312 171.265625 " clip-rule="nonzero"/></clipPath><clipPath id="55e8cce235"><path d="M 88.644531 171 L 120 171 L 120 237.324219 L 88.644531 237.324219 Z M 88.644531 171 " clip-rule="nonzero"/></clipPath><clipPath id="72cd6c076b"><path d="M 114 158.574219 L 126 158.574219 L 126 171 L 114 171 Z M 114 158.574219 " clip-rule="nonzero"/></clipPath></defs><g clip-path="url(#1cf8c45870)"><path fill="#072556" d="M 64.859375 131.042969 C 68.976562 134.160156 74.574219 135.183594 79.683594 136.40625 L 80.585938 147.65625 C 83.109375 147.308594 84.140625 146.792969 85.683594 146.917969 C 76.382812 150.332031 65.300781 163.007812 60.609375 171.828125 C 53.167969 185.832031 52.003906 197.761719 54.113281 215 C 54.308594 214.632812 54.511719 213.632812 54.574219 213.832031 L 56.183594 204.828125 C 58.152344 184.097656 70.039062 165.710938 88.101562 155.554688 C 119.238281 138.046875 137.980469 148.664062 162.707031 161.453125 C 157.875 154.410156 153.386719 149.828125 145.769531 146.875 C 147.953125 146.769531 154.125 150.570312 150.257812 140.789062 C 148.710938 136.875 148.765625 138.109375 141.410156 134.65625 C 145.855469 135.046875 158.566406 137.847656 166.34375 131.179688 C 156.34375 128.359375 122.875 113.28125 116.246094 112.863281 C 110.535156 112.5 74.316406 128.613281 64.859375 131.042969 Z M 64.859375 131.042969 " fill-opacity="1" fill-rule="evenodd"/></g><path fill="#bc002d" d="M 111.683594 260.546875 C 99.40625 255.003906 77.449219 252.078125 68.128906 222.433594 C 59.113281 193.761719 74.921875 177.042969 88.621094 162.867188 C 69.160156 169.125 54.707031 195.914062 60.238281 220.867188 C 64.976562 242.234375 85.574219 261.949219 111.683594 260.546875 Z M 111.683594 260.546875 " fill-opacity="1" fill-rule="evenodd"/><path fill="#bc002d" d="M 164.285156 158.039062 C 167.078125 156.238281 167.441406 160.71875 166.515625 152.996094 C 166.121094 149.710938 165.121094 140.035156 164.863281 136.117188 C 164.140625 138.152344 164.167969 147.433594 163.660156 150.246094 C 162.363281 157.421875 162.816406 155.3125 164.285156 158.039062 Z M 164.285156 158.039062 " fill-opacity="1" fill-rule="evenodd"/><path fill="#072556" d="M 165.609375 232.175781 C 154.535156 239.761719 140.636719 257.019531 110.691406 249.335938 C 81.726562 241.902344 75.792969 219.527344 70.910156 200.300781 C 66.09375 220.277344 81.257812 246.816406 105.265625 255.265625 C 125.820312 262.5 153.222656 255.277344 165.609375 232.175781 Z M 165.609375 232.175781 " fill-opacity="1" fill-rule="evenodd"/><path fill="#072556" d="M 138.886719 181.792969 C 140.992188 183.5625 141.261719 186.699219 139.496094 188.804688 C 137.726562 190.910156 134.589844 191.179688 132.484375 189.414062 C 130.382812 187.644531 130.109375 184.507812 131.878906 182.402344 C 133.644531 180.300781 136.78125 180.027344 138.886719 181.792969 " fill-opacity="1" fill-rule="nonzero"/><path fill="#072556" d="M 144.675781 186.859375 C 144.738281 186.988281 144.722656 187.144531 144.625 187.261719 C 144.527344 187.378906 144.371094 187.421875 144.234375 187.382812 L 144.199219 187.425781 L 143.101562 189.785156 L 141.824219 188.710938 L 143.960938 187.222656 L 143.996094 187.183594 C 143.933594 187.050781 143.949219 186.894531 144.046875 186.777344 C 144.144531 186.660156 144.296875 186.617188 144.4375 186.65625 L 146.234375 184.515625 L 144.941406 182.199219 L 145.566406 184.289062 L 144.085938 183.792969 L 141.765625 186.554688 C 142.082031 184.5 141.351562 182.328125 139.644531 180.894531 C 137.964844 179.480469 135.75 179.125 133.800781 179.75 L 136.0625 177.054688 L 134.25 173.703125 L 143.121094 176.800781 L 147.699219 185.003906 L 146.554688 184.621094 L 144.675781 186.859375 " fill-opacity="1" fill-rule="nonzero"/><g clip-path="url(#63dacb606f)"><path fill="#072556" d="M 132.253906 227.800781 C 132.253906 227.800781 124.335938 225.625 124.273438 211.230469 C 124.25 205.089844 125.347656 200.183594 123.429688 191.285156 C 121.511719 182.386719 120.230469 176.628906 121.207031 171.34375 C 121.207031 171.34375 122.96875 183.117188 132.253906 188.679688 C 143.914062 195.667969 148.976562 203.253906 148.667969 212.304688 C 148.667969 212.304688 145.023438 203.28125 136.644531 200.921875 C 136.644531 200.921875 135.988281 226.265625 151.738281 237.3125 C 151.738281 237.3125 138.300781 234.964844 129.644531 213.378906 C 129.644531 213.378906 128.417969 223.503906 132.253906 227.800781 " fill-opacity="1" fill-rule="nonzero"/></g><path fill="#bc002d" d="M 101.496094 181.792969 C 99.394531 183.5625 99.121094 186.699219 100.890625 188.804688 C 102.65625 190.910156 105.792969 191.179688 107.898438 189.414062 C 110.003906 187.644531 110.273438 184.507812 108.507812 182.402344 C 106.738281 180.300781 103.601562 180.027344 101.496094 181.792969 " fill-opacity="1" fill-rule="nonzero"/><path fill="#bc002d" d="M 95.707031 186.859375 C 95.648438 186.988281 95.660156 187.144531 95.757812 187.261719 C 95.859375 187.378906 96.011719 187.421875 96.148438 187.382812 L 96.183594 187.425781 L 97.285156 189.785156 L 98.558594 188.710938 L 96.425781 187.222656 L 96.390625 187.183594 C 96.449219 187.050781 96.4375 186.894531 96.339844 186.777344 C 96.238281 186.660156 96.085938 186.617188 95.949219 186.65625 L 94.148438 184.515625 L 95.441406 182.199219 L 94.820312 184.289062 L 96.300781 183.792969 L 98.621094 186.554688 C 98.300781 184.5 99.03125 182.328125 100.738281 180.894531 C 102.417969 179.480469 104.632812 179.125 106.582031 179.75 L 104.320312 177.054688 L 106.132812 173.703125 L 97.265625 176.800781 L 92.6875 185.003906 L 93.828125 184.621094 L 95.707031 186.859375 " fill-opacity="1" fill-rule="nonzero"/><g clip-path="url(#55e8cce235)"><path fill="#bc002d" d="M 108.132812 227.800781 C 108.132812 227.800781 116.046875 225.625 116.109375 211.230469 C 116.136719 205.089844 115.035156 200.183594 116.953125 191.285156 C 118.871094 182.386719 120.15625 176.628906 119.175781 171.34375 C 119.175781 171.34375 117.414062 183.117188 108.132812 188.679688 C 96.46875 195.667969 91.410156 203.253906 91.714844 212.304688 C 91.714844 212.304688 95.359375 203.28125 103.742188 200.921875 C 103.742188 200.921875 104.398438 226.265625 88.648438 237.3125 C 88.648438 237.3125 102.082031 234.964844 110.738281 213.378906 C 110.738281 213.378906 111.96875 223.503906 108.132812 227.800781 " fill-opacity="1" fill-rule="nonzero"/></g><g clip-path="url(#72cd6c076b)"><path fill="#bc002d" d="M 119.980469 168.988281 L 120.160156 170.160156 L 120.316406 168.984375 C 120.628906 166.675781 122.425781 164.847656 124.726562 164.496094 L 125.902344 164.316406 L 124.726562 164.160156 C 122.417969 163.847656 120.589844 162.050781 120.238281 159.75 L 120.058594 158.574219 L 119.898438 159.75 C 119.589844 162.058594 117.792969 163.886719 115.488281 164.238281 L 114.316406 164.417969 L 115.492188 164.578125 C 117.800781 164.886719 119.628906 166.683594 119.980469 168.988281 " fill-opacity="1" fill-rule="nonzero"/></g><g fill="#072556" fill-opacity="1"><g transform="translate(161.975267, 213.741188)"><g><path d="M 16.125 0 L 10.96875 0 L 4.921875 -6.953125 L 4.921875 0 L 1.1875 0 L 1.1875 -16.390625 L 4.921875 -16.390625 L 4.921875 -9.703125 L 10.546875 -16.390625 L 15.078125 -16.390625 L 8.484375 -8.625 Z M 16.125 0 "/></g></g></g><g fill="#072556" fill-opacity="1"><g transform="translate(179.608538, 213.741188)"><g><path d="M 4.921875 -10.171875 L 4.921875 0 L 1.1875 0 L 1.1875 -16.390625 L 4.921875 -16.390625 L 11.453125 -6.21875 L 11.484375 -6.21875 L 11.484375 -16.390625 L 15.21875 -16.390625 L 15.21875 0 L 11.484375 0 L 4.96875 -10.171875 Z M 4.921875 -10.171875 "/></g></g></g><g fill="#072556" fill-opacity="1"><g transform="translate(198.017104, 213.741188)"><g><path d="M 0.453125 -8.203125 C 0.453125 -10.578125 1.257812 -12.582031 2.875 -14.21875 C 4.5 -15.863281 6.445312 -16.6875 8.71875 -16.6875 C 11.007812 -16.6875 12.957031 -15.867188 14.5625 -14.234375 C 16.164062 -12.597656 16.96875 -10.585938 16.96875 -8.203125 C 16.96875 -5.804688 16.179688 -3.789062 14.609375 -2.15625 C 13.035156 -0.519531 11.070312 0.296875 8.71875 0.296875 C 6.320312 0.296875 4.34375 -0.515625 2.78125 -2.140625 C 1.226562 -3.765625 0.453125 -5.785156 0.453125 -8.203125 Z M 4.484375 -8.203125 C 4.484375 -7.347656 4.613281 -6.566406 4.875 -5.859375 C 5.144531 -5.148438 5.613281 -4.546875 6.28125 -4.046875 C 6.945312 -3.554688 7.757812 -3.3125 8.71875 -3.3125 C 10.113281 -3.3125 11.164062 -3.789062 11.875 -4.75 C 12.582031 -5.707031 12.9375 -6.859375 12.9375 -8.203125 C 12.9375 -9.546875 12.570312 -10.695312 11.84375 -11.65625 C 11.125 -12.613281 10.082031 -13.09375 8.71875 -13.09375 C 7.375 -13.09375 6.332031 -12.613281 5.59375 -11.65625 C 4.851562 -10.695312 4.484375 -9.546875 4.484375 -8.203125 Z M 4.484375 -8.203125 "/></g></g></g><g fill="#072556" fill-opacity="1"><g transform="translate(217.439512, 213.741188)"><g><path d="M 13.765625 0 L 11.15625 -9.203125 L 8.53125 0 L 4.375 0 L -0.296875 -16.390625 L 3.859375 -16.390625 L 6.65625 -5.140625 L 6.75 -5.140625 L 9.734375 -16.390625 L 12.5625 -16.390625 L 15.546875 -5.140625 L 15.640625 -5.140625 L 18.4375 -16.390625 L 22.578125 -16.390625 L 17.90625 0 Z M 13.765625 0 "/></g></g></g><g fill="#072556" fill-opacity="1"><g transform="translate(241.712452, 213.741188)"><g><path d="M 4.921875 -16.390625 L 4.921875 -3.28125 L 10.578125 -3.28125 L 10.578125 0 L 1.1875 0 L 1.1875 -16.390625 Z M 4.921875 -16.390625 "/></g></g></g><g fill="#072556" fill-opacity="1"><g transform="translate(254.932544, 213.741188)"><g><path d="M 10.578125 -16.390625 L 10.578125 -13.125 L 4.921875 -13.125 L 4.921875 -9.859375 L 10.328125 -9.859375 L 10.328125 -6.578125 L 4.921875 -6.578125 L 4.921875 -3.28125 L 10.578125 -3.28125 L 10.578125 0 L 1.1875 0 L 1.1875 -16.390625 Z M 10.578125 -16.390625 "/></g></g></g><g fill="#072556" fill-opacity="1"><g transform="translate(268.450821, 213.741188)"><g><path d="M 1.1875 -16.390625 L 5.9375 -16.390625 C 8.21875 -16.390625 10.164062 -15.609375 11.78125 -14.046875 C 13.394531 -12.492188 14.203125 -10.546875 14.203125 -8.203125 C 14.203125 -5.847656 13.394531 -3.890625 11.78125 -2.328125 C 10.175781 -0.773438 8.226562 0 5.9375 0 L 1.1875 0 Z M 4.921875 -3.34375 L 5.5 -3.34375 C 6.863281 -3.34375 7.976562 -3.800781 8.84375 -4.71875 C 9.71875 -5.644531 10.160156 -6.800781 10.171875 -8.1875 C 10.171875 -9.582031 9.738281 -10.742188 8.875 -11.671875 C 8.007812 -12.597656 6.882812 -13.0625 5.5 -13.0625 L 4.921875 -13.0625 Z M 4.921875 -3.34375 "/></g></g></g><g fill="#072556" fill-opacity="1"><g transform="translate(285.110014, 213.741188)"><g><path d="M 16.015625 -9.1875 L 16.015625 -5.625 C 15.597656 -3.675781 14.671875 -2.203125 13.234375 -1.203125 C 11.804688 -0.203125 10.210938 0.296875 8.453125 0.296875 C 6.234375 0.296875 4.34375 -0.53125 2.78125 -2.1875 C 1.226562 -3.84375 0.453125 -5.84375 0.453125 -8.1875 C 0.453125 -10.570312 1.210938 -12.582031 2.734375 -14.21875 C 4.265625 -15.863281 6.171875 -16.6875 8.453125 -16.6875 C 11.109375 -16.6875 13.210938 -15.753906 14.765625 -13.890625 L 12.328125 -11.203125 C 11.453125 -12.609375 10.234375 -13.3125 8.671875 -13.3125 C 7.515625 -13.3125 6.523438 -12.8125 5.703125 -11.8125 C 4.890625 -10.8125 4.484375 -9.601562 4.484375 -8.1875 C 4.484375 -6.800781 4.890625 -5.613281 5.703125 -4.625 C 6.523438 -3.632812 7.515625 -3.140625 8.671875 -3.140625 C 9.617188 -3.140625 10.445312 -3.425781 11.15625 -4 C 11.863281 -4.582031 12.21875 -5.347656 12.21875 -6.296875 L 8.453125 -6.296875 L 8.453125 -9.1875 Z M 16.015625 -9.1875 "/></g></g></g><g fill="#072556" fill-opacity="1"><g transform="translate(303.578223, 213.741188)"><g><path d="M 10.578125 -16.390625 L 10.578125 -13.125 L 4.921875 -13.125 L 4.921875 -9.859375 L 10.328125 -9.859375 L 10.328125 -6.578125 L 4.921875 -6.578125 L 4.921875 -3.28125 L 10.578125 -3.28125 L 10.578125 0 L 1.1875 0 L 1.1875 -16.390625 Z M 10.578125 -16.390625 "/></g></g></g><g fill="#bc002d" fill-opacity="1"><g transform="translate(161.975267, 187.053156)"><g><path d="M 4.75 -2.046875 C 4.75 -2.359375 4.640625 -2.59375 4.421875 -2.75 C 4.210938 -2.914062 3.828125 -3.085938 3.265625 -3.265625 C 2.710938 -3.453125 2.269531 -3.628906 1.9375 -3.796875 C 1.050781 -4.273438 0.609375 -4.921875 0.609375 -5.734375 C 0.609375 -6.160156 0.726562 -6.539062 0.96875 -6.875 C 1.207031 -7.207031 1.550781 -7.460938 2 -7.640625 C 2.445312 -7.828125 2.945312 -7.921875 3.5 -7.921875 C 4.050781 -7.921875 4.546875 -7.820312 4.984375 -7.625 C 5.421875 -7.425781 5.757812 -7.140625 6 -6.765625 C 6.25 -6.398438 6.375 -5.984375 6.375 -5.515625 L 4.765625 -5.515625 C 4.765625 -5.867188 4.648438 -6.144531 4.421875 -6.34375 C 4.191406 -6.539062 3.875 -6.640625 3.46875 -6.640625 C 3.070312 -6.640625 2.765625 -6.554688 2.546875 -6.390625 C 2.328125 -6.222656 2.21875 -6.003906 2.21875 -5.734375 C 2.21875 -5.484375 2.34375 -5.269531 2.59375 -5.09375 C 2.851562 -4.925781 3.234375 -4.765625 3.734375 -4.609375 C 4.648438 -4.335938 5.316406 -3.992188 5.734375 -3.578125 C 6.160156 -3.171875 6.375 -2.664062 6.375 -2.0625 C 6.375 -1.382812 6.113281 -0.851562 5.59375 -0.46875 C 5.082031 -0.0820312 4.394531 0.109375 3.53125 0.109375 C 2.925781 0.109375 2.378906 0 1.890625 -0.21875 C 1.398438 -0.4375 1.023438 -0.738281 0.765625 -1.125 C 0.503906 -1.507812 0.375 -1.953125 0.375 -2.453125 L 1.984375 -2.453125 C 1.984375 -1.597656 2.5 -1.171875 3.53125 -1.171875 C 3.914062 -1.171875 4.210938 -1.25 4.421875 -1.40625 C 4.640625 -1.5625 4.75 -1.773438 4.75 -2.046875 Z M 4.75 -2.046875 "/></g></g></g><g fill="#bc002d" fill-opacity="1"><g transform="translate(169.835988, 187.053156)"><g><path d="M 2.3125 -2.75 L 2.3125 0 L 0.703125 0 L 0.703125 -7.828125 L 3.75 -7.828125 C 4.332031 -7.828125 4.847656 -7.71875 5.296875 -7.5 C 5.742188 -7.28125 6.085938 -6.972656 6.328125 -6.578125 C 6.566406 -6.179688 6.6875 -5.734375 6.6875 -5.234375 C 6.6875 -4.460938 6.421875 -3.851562 5.890625 -3.40625 C 5.367188 -2.96875 4.644531 -2.75 3.71875 -2.75 Z M 2.3125 -4.0625 L 3.75 -4.0625 C 4.175781 -4.0625 4.5 -4.160156 4.71875 -4.359375 C 4.945312 -4.554688 5.0625 -4.84375 5.0625 -5.21875 C 5.0625 -5.601562 4.945312 -5.910156 4.71875 -6.140625 C 4.5 -6.378906 4.1875 -6.503906 3.78125 -6.515625 L 2.3125 -6.515625 Z M 2.3125 -4.0625 "/></g></g></g><g fill="#bc002d" fill-opacity="1"><g transform="translate(178.029582, 187.053156)"><g><path d="M 5.109375 -1.609375 L 2.28125 -1.609375 L 1.75 0 L 0.03125 0 L 2.953125 -7.828125 L 4.4375 -7.828125 L 7.375 0 L 5.65625 0 Z M 2.71875 -2.921875 L 4.671875 -2.921875 L 3.703125 -5.84375 Z M 2.71875 -2.921875 "/></g></g></g><g fill="#bc002d" fill-opacity="1"><g transform="translate(186.5292, 187.053156)"><g><path d="M 6.84375 -2.609375 C 6.78125 -1.765625 6.46875 -1.097656 5.90625 -0.609375 C 5.34375 -0.128906 4.601562 0.109375 3.6875 0.109375 C 2.6875 0.109375 1.898438 -0.226562 1.328125 -0.90625 C 0.753906 -1.582031 0.46875 -2.507812 0.46875 -3.6875 L 0.46875 -4.15625 C 0.46875 -4.914062 0.597656 -5.582031 0.859375 -6.15625 C 1.117188 -6.726562 1.492188 -7.164062 1.984375 -7.46875 C 2.484375 -7.769531 3.0625 -7.921875 3.71875 -7.921875 C 4.613281 -7.921875 5.335938 -7.679688 5.890625 -7.203125 C 6.441406 -6.722656 6.757812 -6.046875 6.84375 -5.171875 L 5.234375 -5.171875 C 5.191406 -5.671875 5.050781 -6.035156 4.8125 -6.265625 C 4.570312 -6.492188 4.207031 -6.609375 3.71875 -6.609375 C 3.175781 -6.609375 2.769531 -6.414062 2.5 -6.03125 C 2.238281 -5.644531 2.101562 -5.046875 2.09375 -4.234375 L 2.09375 -3.640625 C 2.09375 -2.796875 2.21875 -2.175781 2.46875 -1.78125 C 2.726562 -1.394531 3.132812 -1.203125 3.6875 -1.203125 C 4.1875 -1.203125 4.554688 -1.316406 4.796875 -1.546875 C 5.046875 -1.773438 5.1875 -2.128906 5.21875 -2.609375 Z M 6.84375 -2.609375 "/></g></g></g><g fill="#bc002d" fill-opacity="1"><g transform="translate(194.824797, 187.053156)"><g><path d="M 5.40625 -3.390625 L 2.3125 -3.390625 L 2.3125 -1.296875 L 5.9375 -1.296875 L 5.9375 0 L 0.703125 0 L 0.703125 -7.828125 L 5.9375 -7.828125 L 5.9375 -6.515625 L 2.3125 -6.515625 L 2.3125 -4.65625 L 5.40625 -4.65625 Z M 5.40625 -3.390625 "/></g></g></g><g fill="#bc002d" fill-opacity="1"><g transform="translate(202.111035, 187.053156)"><g/></g></g><g fill="#bc002d" fill-opacity="1"><g transform="translate(205.950421, 187.053156)"><g><path d="M 7.125 -3.734375 C 7.125 -2.960938 6.988281 -2.285156 6.71875 -1.703125 C 6.445312 -1.128906 6.054688 -0.679688 5.546875 -0.359375 C 5.035156 -0.046875 4.453125 0.109375 3.796875 0.109375 C 3.148438 0.109375 2.570312 -0.046875 2.0625 -0.359375 C 1.5625 -0.671875 1.171875 -1.113281 0.890625 -1.6875 C 0.609375 -2.269531 0.46875 -2.9375 0.46875 -3.6875 L 0.46875 -4.078125 C 0.46875 -4.847656 0.601562 -5.523438 0.875 -6.109375 C 1.15625 -6.691406 1.546875 -7.140625 2.046875 -7.453125 C 2.554688 -7.765625 3.132812 -7.921875 3.78125 -7.921875 C 4.4375 -7.921875 5.019531 -7.765625 5.53125 -7.453125 C 6.039062 -7.140625 6.429688 -6.691406 6.703125 -6.109375 C 6.984375 -5.523438 7.125 -4.847656 7.125 -4.078125 Z M 5.484375 -4.09375 C 5.484375 -4.90625 5.335938 -5.523438 5.046875 -5.953125 C 4.753906 -6.378906 4.335938 -6.59375 3.796875 -6.59375 C 3.253906 -6.59375 2.832031 -6.378906 2.53125 -5.953125 C 2.238281 -5.535156 2.09375 -4.921875 2.09375 -4.109375 L 2.09375 -3.734375 C 2.09375 -2.929688 2.238281 -2.3125 2.53125 -1.875 C 2.820312 -1.4375 3.242188 -1.21875 3.796875 -1.21875 C 4.335938 -1.21875 4.753906 -1.425781 5.046875 -1.84375 C 5.335938 -2.269531 5.484375 -2.890625 5.484375 -3.703125 Z M 5.484375 -4.09375 "/></g></g></g><g fill="#bc002d" fill-opacity="1"><g transform="translate(214.643319, 187.053156)"><g><path d="M 5.40625 -3.203125 L 2.3125 -3.203125 L 2.3125 0 L 0.703125 0 L 0.703125 -7.828125 L 5.796875 -7.828125 L 5.796875 -6.515625 L 2.3125 -6.515625 L 2.3125 -4.5 L 5.40625 -4.5 Z M 5.40625 -3.203125 "/></g></g></g></svg>