<svg xmlns="http://www.w3.org/2000/svg" xmlns:xlink="http://www.w3.org/1999/xlink" width="449" zoomAndPan="magnify" viewBox="0 0 336.75 88.499997" height="118" preserveAspectRatio="xMidYMid meet" version="1.0"><defs><g/></defs><g fill="#ffffff" fill-opacity="1"><g transform="translate(13.500005, 65.059807)"><g><path d="M 26.71875 0 L 18.1875 0 L 8.171875 -11.53125 L 8.171875 0 L 1.96875 0 L 1.96875 -27.171875 L 8.171875 -27.171875 L 8.171875 -16.078125 L 17.484375 -27.171875 L 25 -27.171875 L 14.0625 -14.296875 Z M 26.71875 0 "/></g></g></g><g fill="#ffffff" fill-opacity="1"><g transform="translate(42.708671, 65.059807)"><g><path d="M 8.171875 -16.859375 L 8.171875 0 L 1.96875 0 L 1.96875 -27.171875 L 8.171875 -27.171875 L 18.96875 -10.3125 L 19.03125 -10.3125 L 19.03125 -27.171875 L 25.234375 -27.171875 L 25.234375 0 L 19.03125 0 L 8.234375 -16.859375 Z M 8.171875 -16.859375 "/></g></g></g><g fill="#ffffff" fill-opacity="1"><g transform="translate(73.201574, 65.059807)"><g><path d="M 0.75 -13.609375 C 0.75 -17.535156 2.085938 -20.859375 4.765625 -23.578125 C 7.453125 -26.304688 10.679688 -27.671875 14.453125 -27.671875 C 18.253906 -27.671875 21.484375 -26.3125 24.140625 -23.59375 C 26.796875 -20.882812 28.125 -17.554688 28.125 -13.609375 C 28.125 -9.628906 26.816406 -6.28125 24.203125 -3.5625 C 21.597656 -0.851562 18.347656 0.5 14.453125 0.5 C 10.484375 0.5 7.207031 -0.84375 4.625 -3.53125 C 2.039062 -6.226562 0.75 -9.585938 0.75 -13.609375 Z M 7.4375 -13.609375 C 7.4375 -12.179688 7.65625 -10.878906 8.09375 -9.703125 C 8.539062 -8.523438 9.3125 -7.53125 10.40625 -6.71875 C 11.507812 -5.90625 12.859375 -5.5 14.453125 -5.5 C 16.765625 -5.5 18.503906 -6.289062 19.671875 -7.875 C 20.847656 -9.457031 21.4375 -11.367188 21.4375 -13.609375 C 21.4375 -15.828125 20.835938 -17.726562 19.640625 -19.3125 C 18.453125 -20.90625 16.722656 -21.703125 14.453125 -21.703125 C 12.210938 -21.703125 10.484375 -20.90625 9.265625 -19.3125 C 8.046875 -17.726562 7.4375 -15.828125 7.4375 -13.609375 Z M 7.4375 -13.609375 "/></g></g></g><g fill="#ffffff" fill-opacity="1"><g transform="translate(105.373859, 65.059807)"><g><path d="M 22.828125 0 L 18.484375 -15.25 L 14.125 0 L 7.25 0 L -0.5 -27.171875 L 6.390625 -27.171875 L 11.03125 -8.53125 L 11.203125 -8.53125 L 16.140625 -27.171875 L 20.8125 -27.171875 L 25.75 -8.53125 L 25.921875 -8.53125 L 30.5625 -27.171875 L 37.421875 -27.171875 L 29.671875 0 Z M 22.828125 0 "/></g></g></g><g fill="#ffffff" fill-opacity="1"><g transform="translate(145.580816, 65.059807)"><g><path d="M 8.171875 -27.171875 L 8.171875 -5.4375 L 17.515625 -5.4375 L 17.515625 0 L 1.96875 0 L 1.96875 -27.171875 Z M 8.171875 -27.171875 "/></g></g></g><g fill="#ffffff" fill-opacity="1"><g transform="translate(167.479262, 65.059807)"><g><path d="M 17.515625 -27.171875 L 17.515625 -21.734375 L 8.171875 -21.734375 L 8.171875 -16.34375 L 17.125 -16.34375 L 17.125 -10.90625 L 8.171875 -10.90625 L 8.171875 -5.4375 L 17.515625 -5.4375 L 17.515625 0 L 1.96875 0 L 1.96875 -27.171875 Z M 17.515625 -27.171875 "/></g></g></g><g fill="#ffffff" fill-opacity="1"><g transform="translate(189.871637, 65.059807)"><g><path d="M 1.96875 -27.171875 L 9.84375 -27.171875 C 13.625 -27.171875 16.851562 -25.878906 19.53125 -23.296875 C 22.207031 -20.722656 23.546875 -17.492188 23.546875 -13.609375 C 23.546875 -9.691406 22.210938 -6.441406 19.546875 -3.859375 C 16.878906 -1.285156 13.644531 0 9.84375 0 L 1.96875 0 Z M 8.171875 -5.53125 L 9.125 -5.53125 C 11.382812 -5.53125 13.234375 -6.289062 14.671875 -7.8125 C 16.109375 -9.34375 16.835938 -11.257812 16.859375 -13.5625 C 16.859375 -15.875 16.140625 -17.796875 14.703125 -19.328125 C 13.265625 -20.867188 11.40625 -21.640625 9.125 -21.640625 L 8.171875 -21.640625 Z M 8.171875 -5.53125 "/></g></g></g><g fill="#ffffff" fill-opacity="1"><g transform="translate(217.466789, 65.059807)"><g><path d="M 26.546875 -15.21875 L 26.546875 -9.328125 C 25.847656 -6.097656 24.3125 -3.648438 21.9375 -1.984375 C 19.5625 -0.328125 16.914062 0.5 14 0.5 C 10.332031 0.5 7.207031 -0.867188 4.625 -3.609375 C 2.039062 -6.359375 0.75 -9.675781 0.75 -13.5625 C 0.75 -17.519531 2.007812 -20.859375 4.53125 -23.578125 C 7.0625 -26.304688 10.21875 -27.671875 14 -27.671875 C 18.414062 -27.671875 21.90625 -26.117188 24.46875 -23.015625 L 20.421875 -18.578125 C 18.972656 -20.898438 16.953125 -22.0625 14.359375 -22.0625 C 12.453125 -22.0625 10.820312 -21.234375 9.46875 -19.578125 C 8.113281 -17.921875 7.4375 -15.914062 7.4375 -13.5625 C 7.4375 -11.257812 8.113281 -9.289062 9.46875 -7.65625 C 10.820312 -6.019531 12.453125 -5.203125 14.359375 -5.203125 C 15.941406 -5.203125 17.316406 -5.675781 18.484375 -6.625 C 19.660156 -7.582031 20.25 -8.851562 20.25 -10.4375 L 14 -10.4375 L 14 -15.21875 Z M 26.546875 -15.21875 "/></g></g></g><g fill="#ffffff" fill-opacity="1"><g transform="translate(248.05849, 65.059807)"><g><path d="M 17.515625 -27.171875 L 17.515625 -21.734375 L 8.171875 -21.734375 L 8.171875 -16.34375 L 17.125 -16.34375 L 17.125 -10.90625 L 8.171875 -10.90625 L 8.171875 -5.4375 L 17.515625 -5.4375 L 17.515625 0 L 1.96875 0 L 1.96875 -27.171875 Z M 17.515625 -27.171875 "/></g></g></g><g fill="#ffffff" fill-opacity="1"><g transform="translate(13.500005, 20.852388)"><g><path d="M 7.875 -3.40625 C 7.875 -3.90625 7.695312 -4.289062 7.34375 -4.5625 C 6.988281 -4.832031 6.347656 -5.117188 5.421875 -5.421875 C 4.492188 -5.722656 3.757812 -6.015625 3.21875 -6.296875 C 1.75 -7.097656 1.015625 -8.171875 1.015625 -9.515625 C 1.015625 -10.210938 1.210938 -10.835938 1.609375 -11.390625 C 2.003906 -11.941406 2.570312 -12.367188 3.3125 -12.671875 C 4.050781 -12.984375 4.878906 -13.140625 5.796875 -13.140625 C 6.722656 -13.140625 7.546875 -12.972656 8.265625 -12.640625 C 8.992188 -12.304688 9.554688 -11.832031 9.953125 -11.21875 C 10.359375 -10.601562 10.5625 -9.910156 10.5625 -9.140625 L 7.890625 -9.140625 C 7.890625 -9.734375 7.703125 -10.191406 7.328125 -10.515625 C 6.953125 -10.847656 6.425781 -11.015625 5.75 -11.015625 C 5.09375 -11.015625 4.582031 -10.875 4.21875 -10.59375 C 3.863281 -10.320312 3.6875 -9.960938 3.6875 -9.515625 C 3.6875 -9.085938 3.894531 -8.726562 4.3125 -8.4375 C 4.738281 -8.15625 5.367188 -7.890625 6.203125 -7.640625 C 7.710938 -7.191406 8.816406 -6.628906 9.515625 -5.953125 C 10.210938 -5.273438 10.5625 -4.429688 10.5625 -3.421875 C 10.5625 -2.296875 10.132812 -1.414062 9.28125 -0.78125 C 8.4375 -0.144531 7.296875 0.171875 5.859375 0.171875 C 4.859375 0.171875 3.945312 -0.0078125 3.125 -0.375 C 2.3125 -0.738281 1.6875 -1.238281 1.25 -1.875 C 0.820312 -2.507812 0.609375 -3.242188 0.609375 -4.078125 L 3.296875 -4.078125 C 3.296875 -2.648438 4.148438 -1.9375 5.859375 -1.9375 C 6.492188 -1.9375 6.988281 -2.0625 7.34375 -2.3125 C 7.695312 -2.570312 7.875 -2.9375 7.875 -3.40625 Z M 7.875 -3.40625 "/></g></g></g><g fill="#ffffff" fill-opacity="1"><g transform="translate(26.520911, 20.852388)"><g><path d="M 3.828125 -4.5625 L 3.828125 0 L 1.15625 0 L 1.15625 -12.96875 L 6.21875 -12.96875 C 7.1875 -12.96875 8.039062 -12.785156 8.78125 -12.421875 C 9.519531 -12.066406 10.085938 -11.5625 10.484375 -10.90625 C 10.878906 -10.25 11.078125 -9.503906 11.078125 -8.671875 C 11.078125 -7.398438 10.640625 -6.394531 9.765625 -5.65625 C 8.898438 -4.925781 7.703125 -4.5625 6.171875 -4.5625 Z M 3.828125 -6.734375 L 6.21875 -6.734375 C 6.925781 -6.734375 7.460938 -6.898438 7.828125 -7.234375 C 8.203125 -7.566406 8.390625 -8.039062 8.390625 -8.65625 C 8.390625 -9.289062 8.203125 -9.800781 7.828125 -10.1875 C 7.453125 -10.582031 6.9375 -10.785156 6.28125 -10.796875 L 3.828125 -10.796875 Z M 3.828125 -6.734375 "/></g></g></g><g fill="#ffffff" fill-opacity="1"><g transform="translate(40.093206, 20.852388)"><g><path d="M 8.46875 -2.671875 L 3.796875 -2.671875 L 2.90625 0 L 0.0625 0 L 4.890625 -12.96875 L 7.359375 -12.96875 L 12.21875 0 L 9.375 0 Z M 4.515625 -4.828125 L 7.75 -4.828125 L 6.125 -9.6875 Z M 4.515625 -4.828125 "/></g></g></g><g fill="#ffffff" fill-opacity="1"><g transform="translate(54.172414, 20.852388)"><g><path d="M 11.328125 -4.3125 C 11.234375 -2.914062 10.71875 -1.816406 9.78125 -1.015625 C 8.851562 -0.222656 7.628906 0.171875 6.109375 0.171875 C 4.453125 0.171875 3.144531 -0.382812 2.1875 -1.5 C 1.238281 -2.613281 0.765625 -4.148438 0.765625 -6.109375 L 0.765625 -6.90625 C 0.765625 -8.144531 0.984375 -9.238281 1.421875 -10.1875 C 1.859375 -11.144531 2.484375 -11.875 3.296875 -12.375 C 4.117188 -12.882812 5.070312 -13.140625 6.15625 -13.140625 C 7.644531 -13.140625 8.847656 -12.738281 9.765625 -11.9375 C 10.679688 -11.132812 11.210938 -10.007812 11.359375 -8.5625 L 8.6875 -8.5625 C 8.613281 -9.40625 8.375 -10.015625 7.96875 -10.390625 C 7.570312 -10.765625 6.96875 -10.953125 6.15625 -10.953125 C 5.257812 -10.953125 4.585938 -10.628906 4.140625 -9.984375 C 3.703125 -9.347656 3.476562 -8.363281 3.46875 -7.03125 L 3.46875 -6.046875 C 3.46875 -4.640625 3.679688 -3.613281 4.109375 -2.96875 C 4.535156 -2.320312 5.203125 -2 6.109375 -2 C 6.941406 -2 7.5625 -2.1875 7.96875 -2.5625 C 8.375 -2.945312 8.601562 -3.53125 8.65625 -4.3125 Z M 11.328125 -4.3125 "/></g></g></g><g fill="#ffffff" fill-opacity="1"><g transform="translate(67.913671, 20.852388)"><g><path d="M 8.953125 -5.625 L 3.828125 -5.625 L 3.828125 -2.140625 L 9.84375 -2.140625 L 9.84375 0 L 1.15625 0 L 1.15625 -12.96875 L 9.828125 -12.96875 L 9.828125 -10.796875 L 3.828125 -10.796875 L 3.828125 -7.703125 L 8.953125 -7.703125 Z M 8.953125 -5.625 "/></g></g></g><g fill="#ffffff" fill-opacity="1"><g transform="translate(79.982974, 20.852388)"><g/></g></g><g fill="#ffffff" fill-opacity="1"><g transform="translate(86.342732, 20.852388)"><g><path d="M 11.8125 -6.1875 C 11.8125 -4.914062 11.582031 -3.796875 11.125 -2.828125 C 10.675781 -1.867188 10.03125 -1.128906 9.1875 -0.609375 C 8.351562 -0.0859375 7.390625 0.171875 6.296875 0.171875 C 5.222656 0.171875 4.265625 -0.0820312 3.421875 -0.59375 C 2.578125 -1.113281 1.925781 -1.851562 1.46875 -2.8125 C 1.007812 -3.769531 0.773438 -4.867188 0.765625 -6.109375 L 0.765625 -6.75 C 0.765625 -8.03125 0.992188 -9.15625 1.453125 -10.125 C 1.910156 -11.09375 2.5625 -11.835938 3.40625 -12.359375 C 4.25 -12.878906 5.207031 -13.140625 6.28125 -13.140625 C 7.363281 -13.140625 8.320312 -12.878906 9.15625 -12.359375 C 10 -11.835938 10.648438 -11.09375 11.109375 -10.125 C 11.578125 -9.15625 11.8125 -8.035156 11.8125 -6.765625 Z M 9.09375 -6.78125 C 9.09375 -8.132812 8.847656 -9.164062 8.359375 -9.875 C 7.878906 -10.582031 7.1875 -10.9375 6.28125 -10.9375 C 5.382812 -10.9375 4.691406 -10.585938 4.203125 -9.890625 C 3.722656 -9.191406 3.476562 -8.164062 3.46875 -6.8125 L 3.46875 -6.1875 C 3.46875 -4.863281 3.710938 -3.835938 4.203125 -3.109375 C 4.691406 -2.378906 5.390625 -2.015625 6.296875 -2.015625 C 7.191406 -2.015625 7.878906 -2.363281 8.359375 -3.0625 C 8.847656 -3.769531 9.09375 -4.796875 9.09375 -6.140625 Z M 9.09375 -6.78125 "/></g></g></g><g fill="#ffffff" fill-opacity="1"><g transform="translate(100.742099, 20.852388)"><g><path d="M 8.953125 -5.296875 L 3.828125 -5.296875 L 3.828125 0 L 1.15625 0 L 1.15625 -12.96875 L 9.59375 -12.96875 L 9.59375 -10.796875 L 3.828125 -10.796875 L 3.828125 -7.453125 L 8.953125 -7.453125 Z M 8.953125 -5.296875 "/></g></g></g></svg>